<svg width="17" height="22" viewBox="0 0 17 22" fill="none" xmlns="http://www.w3.org/2000/svg">
<path d="M5 0C5 0.3 5 0.599994 5 0.899994V1H4.89999C4.59999 1 4.3 1 4 1C4 3.9 4 6.9 4 9.8V9.89999H3.89999C3.69999 9.89999 3.40001 9.89999 3.20001 9.89999H3.10001V9.8C3.10001 9.5 3.10001 9.19999 3.10001 8.89999C2.10001 8.89999 1.10001 8.89999 0.100006 8.89999C0.100006 9.89999 0.100006 10.9 0.100006 11.9C0.400006 11.9 0.7 11.9 1 11.9H1.20001V12.1C1.20001 12.4 1.20001 12.7 1.20001 13C1.50001 13 1.8 13 2 13H2.10001V13.1C2.10001 13.7 2.10001 14.3 2.10001 15C2.40001 15 2.7 15 3 15H3.10001V15.1C3.10001 15.7 3.10001 16.3 3.10001 17C3.40001 17 3.7 17 4 17H4.10001V17.1C4.10001 17.7 4.10001 18.3 4.10001 19C4.40001 19 4.69999 19 4.89999 19H5V19.1C5 20.1 5 21 5 22C6.6 22 8.29999 22 9.89999 22C11.6 22 13.3 22 15 22C15 21 15.1 20.1 15 19.1V19H15.1C15.4 19 15.7 19 15.9 19C15.9 18.1 15.9 17.1 15.9 16.2V16H16C16.3 16 16.6 16 16.9 16C16.9 14.9 16.9 13.9 16.9 12.8C16.9 11.5 16.9 10.3 16.9 9C16.6 9 16.3 9 16 9H15.9V8.89999C15.9 8.59999 15.9 8.30001 15.9 8.10001C15.6 8.10001 15.3 8.10001 15 8.10001H14.9V8C14.9 7.7 14.9 7.40001 14.9 7.10001C14.3 7.10001 13.7 7.10001 13 7.10001H12.9V7C12.9 6.7 12.9 6.4 12.9 6.2C11.9 6.1 11 6.2 10 6.2H9.89999V6.10001C9.89999 5.80001 9.89999 5.5 9.89999 5.2C9.29999 5.2 8.7 5.2 8 5.2H7.89999V5.10001C7.89999 3.80001 7.89999 2.5 7.89999 1.3C7.69999 1.3 7.59999 1.3 7.39999 1.3C7.29999 1.3 7.2 1.3 7 1.3H6.89999V1.2C6.89999 0.899997 6.89999 0.600003 6.89999 0.300003C6.29999 3.03984e-06 5.7 0 5 0Z" fill="white"/>
<path d="M5 0C5.7 0 6.3 0 7 0C7 0.3 7 0.7 7 1C6.3 1 5.7 1 5 1C5 0.7 5 0.3 5 0Z" fill="#1C1C1C"/>
<path d="M4 1C4.3 1 4.7 1 5 1C5 4.7 5 8.3 5 12C4.7 12 4.3 12 4 12C4 11.7 4 11.3 4 11C3.7 11 3.3 11 3 11C3 10.7 3 10.3 3 10C3.3 10 3.7 10 4 10C4 7 4 4 4 1Z" fill="#1C1C1C"/>
<path d="M7 1C7.3 1 7.7 1 8 1C8 2.3 8 3.6 8 5C8.7 5 9.3 5 10 5C10 5.3 10 5.7 10 6C11 6 12 6 13 6C13 6.3 13 6.6 13 7C13.7 7 14.3 7 15 7C15 7.3 15 7.7 15 8C15.3 8 15.7 8 16 8C16 8.3 16 8.6 16 9C16.3 9 16.7 9 17 9C17 10.3 17 11.5 17 12.8C17 13.9 17 14.9 17 16C16.7 16 16.3 16 16 16C16 17 16 18 16 19C15.7 19 15.3 19 15 19C15 18 15 17 15 16C15.3 16 15.7 16 16 16C16 13.7 16 11.3 16 9C15.7 9 15.3 9 15 9C15 8.7 15 8.3 15 8C14.7 7.9 14.3 8 14 8C14 9 14 10 14 11C13.7 11 13.3 11 13 11C13 9.7 13 8.3 13 7C12.3 7 11.7 7 11 7C11 8 11 9 11 10C10.7 10 10.3 10 10 10C10 8.7 10 7.3 10 6C9.3 6 8.7 6 8 6C8 7.3 8 8.7 8 10C7.7 10 7.3 10 7 10C7 7 7 4 7 1Z" fill="#1C1C1C"/>
<path d="M0 9C1 9 2 9 3 9C3 9.3 3 9.7 3 10C2.3 10 1.7 10 1 10C1 10.7 1 11.3 1 12C0.7 12 0.3 12 0 12C0 11 0 10 0 9Z" fill="#1C1C1C"/>
<path d="M1 12C1.3 12 1.6 12 2 12C2 12.3 2 12.7 2 13C2.3 13 2.7 13 3 13C3 13.7 3 14.3 3 15C3.3 15 3.7 15 4 15C4 15.7 4 16.3 4 17C3.7 17 3.3 17 3 17C3 16.3 3 15.7 3 15C2.7 15 2.3 15 2 15C2 14.3 2 13.7 2 13C1.7 13 1.4 13 1 13C1 12.7 1 12.3 1 12Z" fill="#1C1C1C"/>
<path d="M4 17C4.3 17 4.7 17 5 17C5 17.7 5 18.3 5 19C5.3 19 5.7 19 6 19C6 19.7 6 20.3 6 21C8.7 21 11.3 21 14 21C14 20.3 14 19.7 14 19C14.3 19 14.7 19 15 19C15.1 20 15 21 15 22C13.3 22 11.6 22 9.89999 22C8.29999 22 6.6 22 5 22C5 21 5 20 5 19C4.7 19 4.4 19 4 19C4 18.3 4 17.6 4 17Z" fill="#1C1C1C"/>
</svg>
